<svg id="Layer_1" data-name="Layer 1" xmlns="http://www.w3.org/2000/svg" viewBox="0 0 161.66 51.54"><defs><style>.cls-1{fill:#fff;}</style></defs><path class="cls-1" d="M.31,22.62a10.12,10.12,0,0,1,1-4.53,10.23,10.23,0,0,1,2.76-3.45,13.19,13.19,0,0,1,4.2-2.25,19.27,19.27,0,0,1,5.31-.93q2.4-.12,2.82-.72t1.5-1.83a16,16,0,0,1,2.22-2.1A15.29,15.29,0,0,1,22.84,5.1a6.69,6.69,0,0,1,3-.72A5.62,5.62,0,0,1,28,4.8a3.84,3.84,0,0,1,1.59,1.14,3.76,3.76,0,0,1,.75,1.59,4.07,4.07,0,0,1,0,1.77,4.29,4.29,0,0,1-.75,1.62A3.08,3.08,0,0,1,28.09,12a5.2,5.2,0,0,1-1.8.33A3.69,3.69,0,0,1,24,11.7a11.17,11.17,0,0,0-1.62-1,2.84,2.84,0,0,0-1.14-.3,1.61,1.61,0,0,0-1.14.39,9.88,9.88,0,0,0-.78.81.25.25,0,0,0-.09.24.27.27,0,0,0,.15.18,11.45,11.45,0,0,1,6.27,3.36Q28,17.94,28,22.62a9.77,9.77,0,0,1-1.08,4.59,10.74,10.74,0,0,1-3,3.54A13.71,13.71,0,0,1,19.51,33a18,18,0,0,1-5.34.78q-1,0-2.22-.09a16,16,0,0,1-2.28-.33A2.27,2.27,0,0,0,8,33.51a1.5,1.5,0,0,0-.75,1,1.41,1.41,0,0,0,.24,1.11,1.69,1.69,0,0,0,1.26.66,18.93,18.93,0,0,0,3.54,0q1.86-.15,3.84-.42l4-.54A31.06,31.06,0,0,1,24.19,35q2.88,0,4,1.44a7.46,7.46,0,0,1,1.41,3.6,6.58,6.58,0,0,1-.84,4.44A11.1,11.1,0,0,1,25.42,48a18.83,18.83,0,0,1-4.89,2.37A22.47,22.47,0,0,1,15,51.48a28,28,0,0,1-5.46-.18,19.36,19.36,0,0,1-5-1.29,7.62,7.62,0,0,1-3.36-2.52,4.16,4.16,0,0,1-.36-3.93,2,2,0,0,1,.36-.72,2.39,2.39,0,0,0,.36-.6q.12-.18-.12-.42a5,5,0,0,1-1.26-2.4,5.74,5.74,0,0,1,.09-2.79A6.62,6.62,0,0,1,1.66,34a6.41,6.41,0,0,1,2.73-1.8.56.56,0,0,0,.42-.39q.06-.27-.54-.57a6.22,6.22,0,0,1-3.09-3.51A14.77,14.77,0,0,1,.31,22.62ZM9,42.54q-1.08,0-1.38.48a2.65,2.65,0,0,0-.48,1.92,2.21,2.21,0,0,0,1,1.38,5.62,5.62,0,0,0,2,.81,11.45,11.45,0,0,0,2.52.27,13.38,13.38,0,0,0,2.79-.3,10.09,10.09,0,0,0,2.52-.87,5.26,5.26,0,0,0,1.77-1.41,2.64,2.64,0,0,0,.54-2,.83.83,0,0,0-.69-.72,6.18,6.18,0,0,0-1.65-.18,34.78,34.78,0,0,0-4.17.3A38.45,38.45,0,0,1,9,42.54Zm2.34-19.38a40.43,40.43,0,0,0,1,4,10,10,0,0,0,1,2.4,2.92,2.92,0,0,0,1.11,1.11,2.48,2.48,0,0,0,1.29.21A2.14,2.14,0,0,0,17,30.33a2.54,2.54,0,0,0,.6-1.44,10.68,10.68,0,0,0,0-2.64q-.18-1.65-.66-4.11t-1-4.11a11.16,11.16,0,0,0-.9-2.46,2.64,2.64,0,0,0-1-1.14,2.17,2.17,0,0,0-1.32-.15,2.21,2.21,0,0,0-1.14.57,2.73,2.73,0,0,0-.69,1.47A10.07,10.07,0,0,0,10.75,19,37.76,37.76,0,0,0,11.35,23.16Z"/><path class="cls-1" d="M34.09,41q-1.68,0-2-.45a3.7,3.7,0,0,1-.3-1.83,1.44,1.44,0,0,1,.42-1.11q.42-.39.93-.78a5.12,5.12,0,0,0,.93-.93,2.39,2.39,0,0,0,.42-1.5V20.58a2.37,2.37,0,0,0-.42-1.53,4.76,4.76,0,0,0-.93-.87,7.11,7.11,0,0,1-.93-.78,1.54,1.54,0,0,1-.42-1.14q0-.6,0-1a1.45,1.45,0,0,1,.3-.78,2.24,2.24,0,0,1,.81-.63,7.46,7.46,0,0,1,1.56-.51l7.86-1.92a2.58,2.58,0,0,1,1.29,0,1.19,1.19,0,0,1,.66.48,1.37,1.37,0,0,1,.21.75,3.73,3.73,0,0,1-.06.72,4.34,4.34,0,0,0-.06,1.23q.06.57.36.57t1-.78A7.24,7.24,0,0,1,48.61,12a8.7,8.7,0,0,1,3.72-.84,6.87,6.87,0,0,1,3.48.93,5.56,5.56,0,0,1,2.4,3.09,4.92,4.92,0,0,1,.09,3.42A4.49,4.49,0,0,1,56.65,21a4.88,4.88,0,0,1-2.76.72A6.49,6.49,0,0,1,51,21a2.1,2.1,0,0,1-1.38-1.89A1.35,1.35,0,0,0,49.09,18,1.75,1.75,0,0,0,48,17.64a2.71,2.71,0,0,0-1.92,1,4.71,4.71,0,0,0-1,3.3V34.44a2.39,2.39,0,0,0,.42,1.5,4.69,4.69,0,0,0,1,.93,10.1,10.1,0,0,1,1,.78,1.44,1.44,0,0,1,.42,1.11q0,.72,0,1.14a1.24,1.24,0,0,1-.24.69,1.09,1.09,0,0,1-.69.36,7.54,7.54,0,0,1-1.32.09Z"/><path class="cls-1" d="M72.67,14.4a3.14,3.14,0,0,0-2.28,1.32,9.84,9.84,0,0,0-1.8,3.18,3,3,0,0,1-1.74,1.77,6.89,6.89,0,0,1-2.76.57,6.21,6.21,0,0,1-2.58-.54,2.92,2.92,0,0,1-1.62-1.62,3.11,3.11,0,0,1,.18-2.28,6.66,6.66,0,0,1,2.07-2.64A13.32,13.32,0,0,1,66.28,12a20,20,0,0,1,6.45-.9,19.35,19.35,0,0,1,4.53.54,11.79,11.79,0,0,1,4,1.77,9.47,9.47,0,0,1,2.85,3.12,9.11,9.11,0,0,1,1.08,4.59V33.84a2.28,2.28,0,0,0,.45,1.5,4.64,4.64,0,0,0,1,.9l1,.66a1,1,0,0,1,.45.84,2.46,2.46,0,0,1-.75,1.86,5.41,5.41,0,0,1-1.86,1.14,11.2,11.2,0,0,1-2.31.6,14.39,14.39,0,0,1-2.1.18q-1,0-1.74-.06A6.46,6.46,0,0,1,78,41.22a5.9,5.9,0,0,1-1.35-.54,6.72,6.72,0,0,1-.84-.57l-.57-.48a.8.8,0,0,0-.54-.21,1.13,1.13,0,0,0-.78.33,10.07,10.07,0,0,1-.9.72,5.91,5.91,0,0,1-1.47.72,7.88,7.88,0,0,1-2.55.33q-5.76,0-8.46-2.73a9.75,9.75,0,0,1-2.7-7.17,7.88,7.88,0,0,1,.84-3.51,9.93,9.93,0,0,1,2.31-3A11.52,11.52,0,0,1,64.54,23,12.16,12.16,0,0,1,69,22.14a20.27,20.27,0,0,1,3.69.24,9.73,9.73,0,0,0,1.59.24q.3,0,.3-.48a45.27,45.27,0,0,0-.27-5.94Q74.05,14.4,72.67,14.4ZM68.83,31.32a6.89,6.89,0,0,0,.54,2.94A5.36,5.36,0,0,0,70.63,36a3.81,3.81,0,0,0,1.47.84,4.77,4.77,0,0,0,1.23.21,1.31,1.31,0,0,0,.81-.21,1.37,1.37,0,0,0,.39-.84,9.8,9.8,0,0,0,.12-1.74V31.38q0-1.86,0-3a16.35,16.35,0,0,0-.12-1.77,1.41,1.41,0,0,0-.36-.87,1.19,1.19,0,0,0-.81-.24,4.36,4.36,0,0,0-2.7,1.11,5.36,5.36,0,0,0-1.26,1.77A6.89,6.89,0,0,0,68.83,31.32Z"/><path class="cls-1" d="M98.65,27.12a11.55,11.55,0,0,0,2.58,5,6.65,6.65,0,0,0,5.1,1.86,7.67,7.67,0,0,0,3.51-.72q1.41-.72,1.89-1a2.46,2.46,0,0,1,1.08-.3,1.79,1.79,0,0,1,1.17.42,3,3,0,0,1,.81,1.05,3.31,3.31,0,0,1,.3,1.44,3.38,3.38,0,0,1-.36,1.53,6,6,0,0,1-1.44,1.74,12.54,12.54,0,0,1-2.52,1.68,17,17,0,0,1-3.36,1.29,14.92,14.92,0,0,1-4,.51,17.55,17.55,0,0,1-6.45-1,14.3,14.3,0,0,1-5-3.06,13.66,13.66,0,0,1-3.21-4.77,16.28,16.28,0,0,1-1.14-6.21A15,15,0,0,1,88.9,20.4a14.32,14.32,0,0,1,8.34-7.8,17.7,17.7,0,0,1,6.21-1.08,17.18,17.18,0,0,1,4.77.6,11.2,11.2,0,0,1,3.51,1.65,8.61,8.61,0,0,1,2.28,2.4,8.5,8.5,0,0,1,1.14,2.91,4.33,4.33,0,0,1-.12,2.28A3.82,3.82,0,0,1,113.89,23a5.62,5.62,0,0,1-1.83,1,6.53,6.53,0,0,1-2.13.36,5.82,5.82,0,0,1-3-.81,3.65,3.65,0,0,1-1.74-2.55q-.18-.9-.51-2a9.39,9.39,0,0,0-.81-1.92,4.14,4.14,0,0,0-1.2-1.35,1.93,1.93,0,0,0-1.74-.21,2.63,2.63,0,0,0-1.47,1.14,7,7,0,0,0-1,2.49,15.71,15.71,0,0,0-.36,3.57A17,17,0,0,0,98.65,27.12Z"/><path class="cls-1" d="M117.55,38.76a1.44,1.44,0,0,1,.42-1.11q.42-.39.93-.78a5.12,5.12,0,0,0,.93-.93,2.39,2.39,0,0,0,.42-1.5V20.58a2.37,2.37,0,0,0-.42-1.53,4.76,4.76,0,0,0-.93-.87,7.11,7.11,0,0,1-.93-.78,1.54,1.54,0,0,1-.42-1.14q0-.6,0-1.05a1.34,1.34,0,0,1,.3-.78,2.44,2.44,0,0,1,.81-.6,7.46,7.46,0,0,1,1.56-.51l8.46-1.92a2.45,2.45,0,0,1,1.26,0,1.05,1.05,0,0,1,.6.48,1.82,1.82,0,0,1,.21.75q0,.42,0,.72V34.44a2.39,2.39,0,0,0,.42,1.5,4.69,4.69,0,0,0,1,.93,10.1,10.1,0,0,1,1,.78,1.44,1.44,0,0,1,.42,1.11q0,.72,0,1.14a1.24,1.24,0,0,1-.24.69,1.09,1.09,0,0,1-.69.36,7.54,7.54,0,0,1-1.32.09H119.83q-1.68,0-2-.45A3.7,3.7,0,0,1,117.55,38.76Zm1.92-33.54a4.59,4.59,0,0,1,1.8-3.81A6.7,6.7,0,0,1,125.53,0a6.61,6.61,0,0,1,4.2,1.41,4.59,4.59,0,0,1,1.8,3.81,4.63,4.63,0,0,1-.48,2.1A5,5,0,0,1,129.73,9a6,6,0,0,1-1.92,1,7.16,7.16,0,0,1-2.28.36,7.44,7.44,0,0,1-2.31-.36,5.91,5.91,0,0,1-2-1A5,5,0,0,1,120,7.32,4.63,4.63,0,0,1,119.47,5.22Z"/><path class="cls-1" d="M160.93,36.42a6,6,0,0,1-1.44,1.74A12.54,12.54,0,0,1,157,39.84a17,17,0,0,1-3.36,1.29,14.92,14.92,0,0,1-4,.51,18.78,18.78,0,0,1-6.75-1,13.9,13.9,0,0,1-5-3.06,12.86,12.86,0,0,1-3.09-4.77,17.51,17.51,0,0,1-1.05-6.21,16,16,0,0,1,1.14-6.18,13.52,13.52,0,0,1,3.24-4.74,14.57,14.57,0,0,1,5-3.06,18.67,18.67,0,0,1,6.48-1.08,14.08,14.08,0,0,1,5.85,1.08,11,11,0,0,1,3.81,2.73,9.19,9.19,0,0,1,2,3.57,8.47,8.47,0,0,1,.3,3.54,5.08,5.08,0,0,1-1.2,2.7,3.21,3.21,0,0,1-2.52,1.08l-12.48-.06q-.78,0-.87.48a1.67,1.67,0,0,0,0,.84,11.51,11.51,0,0,0,3,4.71,7.22,7.22,0,0,0,5.1,1.83,7.34,7.34,0,0,0,3.42-.72q1.38-.72,1.86-1A2.46,2.46,0,0,1,159,32a1.79,1.79,0,0,1,1.17.42,3,3,0,0,1,.81,1.05,3.31,3.31,0,0,1,.3,1.44A3.38,3.38,0,0,1,160.93,36.42ZM150,21.9A2,2,0,0,0,152,20.7a3.53,3.53,0,0,0,0-2.52,4.88,4.88,0,0,0-1.8-2.28,3.65,3.65,0,0,0-3.12-.54,3.06,3.06,0,0,0-2.31,1.77,7.2,7.2,0,0,0-.63,3v.63a1.68,1.68,0,0,0,.12.63.93.93,0,0,0,.48.48,2.69,2.69,0,0,0,1.14.18Z"/></svg>